<svg xmlns="http://www.w3.org/2000/svg" viewBox="0 0 120 120">
  <defs>
    <linearGradient id="bg" x1="0%" y1="0%" x2="100%" y2="100%">
      <stop offset="0%" stop-color="#60A5FA"/>
      <stop offset="100%" stop-color="#2563EB"/>
    </linearGradient>
    <linearGradient id="body" x1="0%" y1="0%" x2="0%" y2="100%">
      <stop offset="0%" stop-color="#FFFFFF"/>
      <stop offset="100%" stop-color="#DBEAFE"/>
    </linearGradient>
  </defs>
  <rect width="120" height="120" rx="26" fill="url(#bg)"/>
  <ellipse cx="42" cy="22" rx="30" ry="14" fill="white" opacity="0.15"/>
  <rect x="10" y="52" width="82" height="34" rx="10" fill="url(#body)"/>
  <path d="M72 38 Q92 38 97 52 L97 86 Q97 86 82 86 L82 52 Q82 44 72 44 Z" fill="url(#body)"/>
  <rect x="76" y="43" width="17" height="20" rx="4" fill="#BAE6FD" opacity="0.85"/>
  <rect x="16" y="56" width="17" height="13" rx="4" fill="#BAE6FD" opacity="0.85"/>
  <rect x="38" y="56" width="17" height="13" rx="4" fill="#BAE6FD" opacity="0.85"/>
  <rect x="60" y="56" width="12" height="13" rx="4" fill="#BAE6FD" opacity="0.85"/>
  <line x1="36" y1="52" x2="36" y2="86" stroke="#BFDBFE" stroke-width="1.5"/>
  <line x1="58" y1="52" x2="58" y2="86" stroke="#BFDBFE" stroke-width="1.5"/>
  <rect x="10" y="74" width="82" height="3" rx="1.5" fill="#93C5FD" opacity="0.5"/>
  <circle cx="30" cy="86" r="13" fill="#1E3A8A"/>
  <circle cx="30" cy="86" r="8" fill="#DBEAFE"/>
  <circle cx="30" cy="86" r="4" fill="#1E3A8A"/>
  <circle cx="84" cy="86" r="13" fill="#1E3A8A"/>
  <circle cx="84" cy="86" r="8" fill="#DBEAFE"/>
  <circle cx="84" cy="86" r="4" fill="#1E3A8A"/>
  <g transform="translate(13, 22) scale(0.9)">
    <path d="M12 21.593c-5.63-5.539-11-10.297-11-14.402 0-3.791 3.068-5.191 5.281-5.191 1.312 0 4.151.501 5.719 4.457 1.59-3.968 4.464-4.447 5.726-4.447 2.54 0 5.274 1.621 5.274 5.181 0 4.069-5.136 8.625-11 14.402z" fill="white" opacity="0.95"/>
  </g>
  <circle cx="94" cy="26" r="3" fill="white" opacity="0.6"/>
  <circle cx="102" cy="18" r="2" fill="white" opacity="0.4"/>
</svg>
